<?xml version="1.0" encoding="utf-8"?>
<!-- Generator: Adobe Illustrator 25.3.1, SVG Export Plug-In . SVG Version: 6.00 Build 0)  -->
<svg version="1.1" id="Layer_1" xmlns="http://www.w3.org/2000/svg" xmlns:xlink="http://www.w3.org/1999/xlink" x="0px" y="0px"
	 viewBox="0 0 206.23 116.9" style="enable-background:new 0 0 206.23 116.9;" xml:space="preserve">
<style type="text/css">
	.st0{fill:#23639B;}
	.st1{fill:#818285;}
</style>
<g>
	<g>
		<path class="st0" d="M2.83,85.51c-0.39-0.08-0.77-0.19-1.16-0.27v0.08C2.06,85.38,2.45,85.45,2.83,85.51 M100.07,59.61l-32.7,6.84
			l15.88,0.65c-12.32,9.49-27.67,15.47-43.57,18.1c-12.04,1.99-24.7,2.24-36.85,0.31c0.34,0.07,0.68,0.16,1.03,0.23
			c28.86,6.22,59.78,1.5,85.98-10.57l0.94,11.57L100.07,59.61z"/>
		<path class="st0" d="M30.3,88.92c-9.01,0-17.91-0.92-26.53-2.78c-0.18-0.04-0.37-0.08-0.55-0.12c-0.15-0.04-0.31-0.07-0.46-0.1
			c-0.38-0.06-0.77-0.13-1.15-0.19l-0.35-0.06V84.8l0.5,0.03c0.18,0.04,0.36,0.08,0.54,0.13c0.2,0.05,0.4,0.1,0.6,0.14
			c11.62,1.85,24.32,1.74,36.71-0.31c16.22-2.68,30.87-8.66,42.46-17.32l-18.07-0.74l36.69-7.67L90.53,88.76L89.47,75.8
			C70.44,84.48,50.11,88.92,30.3,88.92z M14.43,87.11c24.7,3.09,51.03-1.16,75.24-12.32l0.54-0.25l0.83,10.17l8.4-24.55l-28.71,6.01
			l13.68,0.56l-0.91,0.7c-11.84,9.12-26.97,15.4-43.75,18.18C31.31,87.01,22.72,87.51,14.43,87.11z"/>
	</g>
	<g>
		<path class="st1" d="M70.61,40.44c0.19,0,0.38,0,0.57,0.01c7.04-20.8,26.83-35.78,50.14-35.78c27,0,49.29,20.12,52.49,46.08
			c16.65,0.36,30.04,13.89,30.04,30.51c0,16.15-12.64,29.38-28.62,30.45v0.07h-4.39v-0.07c15.19-1.02,27.2-13.58,27.2-28.94
			c0-15.8-12.73-28.65-28.55-29c-3.05-24.68-24.23-43.8-49.89-43.8c-22.15,0-40.97,14.24-47.66,34.01
			c-0.18-0.01-0.35-0.01-0.54-0.01c-13.01,0-24.32,7.23-30.08,17.87c-2.92-1.13-6.1-1.76-9.42-1.76
			c-14.37,0-26.01,11.58-26.01,25.84c0,14.26,11.63,25.82,25.97,25.84h-2.81c-15.11,0-27.37-12.17-27.37-27.18
			c0-15.01,12.26-27.19,27.37-27.19c3.5,0,6.84,0.65,9.92,1.85C45.02,48.05,56.92,40.44,70.61,40.44"/>
		<path class="st1" d="M175.23,112.4h-5.02v-1.21l0.58-0.11c14.93-1,26.62-13.44,26.62-28.32c0-15.31-12.54-28.04-27.94-28.38
			l-0.54-0.01l-0.07-0.54c-3.04-24.66-24.23-43.25-49.27-43.25c-21.35,0-40.27,13.5-47.07,33.59l-0.15,0.44l-0.46-0.01
			c-0.17-0.01-0.34,0-0.52-0.01c-12.36,0-23.67,6.72-29.53,17.55l-0.26,0.48l-0.51-0.2c-2.94-1.14-6.03-1.71-9.2-1.71
			c-14,0-25.39,11.31-25.39,25.22c0,13.89,11.37,25.2,25.35,25.21l0,1.25h-2.81c-15.44,0-27.99-12.47-27.99-27.81
			c0-15.34,12.56-27.81,27.99-27.81c3.32,0,6.56,0.57,9.63,1.69c6.46-11.52,18.64-18.65,31.93-18.65c0.04,0,0.08,0,0.13,0
			C78.19,18.4,98.46,4.04,121.32,4.04c26.82,0,49.52,19.78,53.04,46.1c16.65,0.65,30.11,14.5,30.11,31.12
			c0,16.13-12.52,29.65-28.62,31.03v0.05L175.23,112.4z M170.04,53.16c15.83,0.63,28.63,13.8,28.63,29.61
			c0,12.6-8.04,23.53-19.4,27.76c13.72-2.83,23.96-14.99,23.96-29.27c0-16.13-13.2-29.53-29.43-29.89l-0.54-0.01l-0.07-0.54
			c-3.21-25.96-25.51-45.53-51.87-45.53c-22.48,0-42.39,14.21-49.55,35.36l-0.15,0.44l-0.46-0.01c-0.18-0.01-0.37,0-0.55-0.01
			c-13.01,0-24.93,7.08-31.09,18.48l-0.26,0.48l-0.51-0.2c-3.08-1.2-6.35-1.8-9.69-1.8C14.3,58.03,2.3,69.94,2.3,84.59
			c0,11.43,7.3,21.19,17.52,24.93c-8.63-4.38-14.56-13.31-14.56-23.58c0-14.59,11.95-26.47,26.64-26.47c3.14,0,6.21,0.54,9.14,1.61
			c6.15-10.95,17.73-17.73,30.37-17.73c0.03,0,0.06,0,0.09,0c7.1-20.36,26.37-34,48.1-34C145.09,9.35,166.68,28.14,170.04,53.16z"/>
	</g>
</g>
</svg>
